<mxfile host="app.diagrams.net" modified="2020-11-05T11:26:42.607Z" agent="5.0 (Windows NT 10.0; Win64; x64) AppleWebKit/537.36 (KHTML, like Gecko) Chrome/86.0.4240.111 Safari/537.36" etag="1fWIRYRBmNHBDmgxb1_P" version="13.9.1" type="github">
  <diagram id="qez9i5TxmSEGGM4mnb24" name="Page-1">
    <mxGraphModel dx="1038" dy="532" grid="1" gridSize="10" guides="1" tooltips="1" connect="1" arrows="1" fold="1" page="1" pageScale="1" pageWidth="827" pageHeight="1169" math="0" shadow="0">
      <root>
        <mxCell id="0" />
        <mxCell id="1" parent="0" />
        <mxCell id="gmzzYFnQyYvq2hG0Ijyp-1" value="" style="rounded=0;whiteSpace=wrap;html=1;" parent="1" vertex="1">
          <mxGeometry x="200" y="370" width="180" height="40" as="geometry" />
        </mxCell>
        <mxCell id="gmzzYFnQyYvq2hG0Ijyp-2" value="参数n" style="rounded=0;whiteSpace=wrap;html=1;" parent="1" vertex="1">
          <mxGeometry x="200" y="330" width="180" height="40" as="geometry" />
        </mxCell>
        <mxCell id="gmzzYFnQyYvq2hG0Ijyp-3" value="···" style="rounded=0;whiteSpace=wrap;html=1;" parent="1" vertex="1">
          <mxGeometry x="200" y="290" width="180" height="40" as="geometry" />
        </mxCell>
        <mxCell id="gmzzYFnQyYvq2hG0Ijyp-4" value="参数1" style="rounded=0;whiteSpace=wrap;html=1;" parent="1" vertex="1">
          <mxGeometry x="200" y="250" width="180" height="40" as="geometry" />
        </mxCell>
        <mxCell id="gmzzYFnQyYvq2hG0Ijyp-5" value="返回地址" style="rounded=0;whiteSpace=wrap;html=1;" parent="1" vertex="1">
          <mxGeometry x="200" y="210" width="180" height="40" as="geometry" />
        </mxCell>
        <mxCell id="gmzzYFnQyYvq2hG0Ijyp-6" value="caller 的ebp" style="rounded=0;whiteSpace=wrap;html=1;" parent="1" vertex="1">
          <mxGeometry x="200" y="170" width="180" height="40" as="geometry" />
        </mxCell>
        <mxCell id="gmzzYFnQyYvq2hG0Ijyp-7" value="临时变量" style="rounded=0;whiteSpace=wrap;html=1;" parent="1" vertex="1">
          <mxGeometry x="200" y="130" width="180" height="40" as="geometry" />
        </mxCell>
        <mxCell id="gmzzYFnQyYvq2hG0Ijyp-8" value="···" style="rounded=0;whiteSpace=wrap;html=1;" parent="1" vertex="1">
          <mxGeometry x="200" y="90" width="180" height="40" as="geometry" />
        </mxCell>
        <mxCell id="gmzzYFnQyYvq2hG0Ijyp-9" value="" style="shape=flexArrow;endArrow=classic;html=1;" parent="1" edge="1">
          <mxGeometry width="50" height="50" relative="1" as="geometry">
            <mxPoint x="160" y="90" as="sourcePoint" />
            <mxPoint x="160" y="400" as="targetPoint" />
          </mxGeometry>
        </mxCell>
        <mxCell id="gmzzYFnQyYvq2hG0Ijyp-10" value="低地址" style="text;html=1;strokeColor=none;fillColor=none;align=center;verticalAlign=middle;whiteSpace=wrap;rounded=0;" parent="1" vertex="1">
          <mxGeometry x="110" y="90" width="40" height="20" as="geometry" />
        </mxCell>
        <mxCell id="gmzzYFnQyYvq2hG0Ijyp-11" value="高地址" style="text;html=1;strokeColor=none;fillColor=none;align=center;verticalAlign=middle;whiteSpace=wrap;rounded=0;" parent="1" vertex="1">
          <mxGeometry x="110" y="350" width="40" height="20" as="geometry" />
        </mxCell>
        <mxCell id="gmzzYFnQyYvq2hG0Ijyp-12" value="" style="shape=curlyBracket;whiteSpace=wrap;html=1;rounded=1;rotation=-180;" parent="1" vertex="1">
          <mxGeometry x="390" y="220" width="20" height="190" as="geometry" />
        </mxCell>
        <mxCell id="gmzzYFnQyYvq2hG0Ijyp-13" value="" style="shape=curlyBracket;whiteSpace=wrap;html=1;rounded=1;rotation=-180;" parent="1" vertex="1">
          <mxGeometry x="394" y="90" width="20" height="110" as="geometry" />
        </mxCell>
        <mxCell id="gmzzYFnQyYvq2hG0Ijyp-14" value="callee的栈" style="text;html=1;strokeColor=none;fillColor=none;align=center;verticalAlign=middle;whiteSpace=wrap;rounded=0;" parent="1" vertex="1">
          <mxGeometry x="430" y="135" width="80" height="20" as="geometry" />
        </mxCell>
        <mxCell id="gmzzYFnQyYvq2hG0Ijyp-15" value="caller的栈" style="text;html=1;strokeColor=none;fillColor=none;align=center;verticalAlign=middle;whiteSpace=wrap;rounded=0;" parent="1" vertex="1">
          <mxGeometry x="420" y="305" width="80" height="20" as="geometry" />
        </mxCell>
        <mxCell id="gmzzYFnQyYvq2hG0Ijyp-16" value="" style="shape=flexArrow;endArrow=classic;html=1;fillColor=#dae8fc;strokeColor=#6c8ebf;" parent="1" edge="1">
          <mxGeometry width="50" height="50" relative="1" as="geometry">
            <mxPoint x="470" y="209" as="sourcePoint" />
            <mxPoint x="400" y="209" as="targetPoint" />
          </mxGeometry>
        </mxCell>
        <mxCell id="gmzzYFnQyYvq2hG0Ijyp-17" value="ebp" style="text;html=1;strokeColor=none;fillColor=none;align=center;verticalAlign=middle;whiteSpace=wrap;rounded=0;" parent="1" vertex="1">
          <mxGeometry x="480" y="200" width="40" height="20" as="geometry" />
        </mxCell>
      </root>
    </mxGraphModel>
  </diagram>
</mxfile>
